<svg id="visual" viewBox="0 0 900 600" width="900" height="600" xmlns="http://www.w3.org/2000/svg" xmlns:xlink="http://www.w3.org/1999/xlink" version="1.1"><g stroke-width="1" stroke-linejoin="bevel"><path d="M490 279L433 368L533 381Z" fill="#6a47f9" stroke="#6a47f9"></path><path d="M490 279L375 316L433 368Z" fill="#6600ff" stroke="#6600ff"></path><path d="M533 381L612 279L490 279Z" fill="#6619fe" stroke="#6619fe"></path><path d="M533 381L618 391L612 279Z" fill="#715df2" stroke="#715df2"></path><path d="M395 162L318 302L375 316Z" fill="#6839fb" stroke="#6839fb"></path><path d="M301 435L405 522L433 368Z" fill="#6600ff" stroke="#6600ff"></path><path d="M475 519L533 381L433 368Z" fill="#6626fd" stroke="#6626fd"></path><path d="M475 519L564 497L533 381Z" fill="#6619fe" stroke="#6619fe"></path><path d="M533 381L564 497L618 391Z" fill="#6619fe" stroke="#6619fe"></path><path d="M572 162L495 165L490 279Z" fill="#6619fe" stroke="#6619fe"></path><path d="M490 279L395 162L375 316Z" fill="#6940fa" stroke="#6940fa"></path><path d="M405 522L475 519L433 368Z" fill="#6600ff" stroke="#6600ff"></path><path d="M612 279L572 162L490 279Z" fill="#6a47f9" stroke="#6a47f9"></path><path d="M301 435L433 368L375 316Z" fill="#6940fa" stroke="#6940fa"></path><path d="M380 119L395 162L495 165Z" fill="#6940fa" stroke="#6940fa"></path><path d="M495 165L395 162L490 279Z" fill="#6839fb" stroke="#6839fb"></path><path d="M318 302L301 435L375 316Z" fill="#6619fe" stroke="#6619fe"></path><path d="M711 435L716 331L618 391Z" fill="#6d52f6" stroke="#6d52f6"></path><path d="M618 391L716 331L612 279Z" fill="#6730fc" stroke="#6730fc"></path><path d="M612 279L634 120L572 162Z" fill="#6839fb" stroke="#6839fb"></path><path d="M701 470L711 435L618 391Z" fill="#6940fa" stroke="#6940fa"></path><path d="M301 435L308 505L405 522Z" fill="#6619fe" stroke="#6619fe"></path><path d="M521 77L380 119L495 165Z" fill="#6626fd" stroke="#6626fd"></path><path d="M395 162L268 205L318 302Z" fill="#6d52f6" stroke="#6d52f6"></path><path d="M564 497L701 470L618 391Z" fill="#6600ff" stroke="#6600ff"></path><path d="M677 600L701 470L564 497Z" fill="#6c4df7" stroke="#6c4df7"></path><path d="M301 117L268 205L395 162Z" fill="#6619fe" stroke="#6619fe"></path><path d="M187 435L228 489L301 435Z" fill="#6839fb" stroke="#6839fb"></path><path d="M301 435L228 489L308 505Z" fill="#715df2" stroke="#715df2"></path><path d="M405 600L535 600L475 519Z" fill="#6600ff" stroke="#6600ff"></path><path d="M475 519L535 600L564 497Z" fill="#6730fc" stroke="#6730fc"></path><path d="M405 600L475 519L405 522Z" fill="#6d52f6" stroke="#6d52f6"></path><path d="M737 187L634 120L612 279Z" fill="#6940fa" stroke="#6940fa"></path><path d="M572 162L521 77L495 165Z" fill="#6c4df7" stroke="#6c4df7"></path><path d="M634 120L521 77L572 162Z" fill="#6619fe" stroke="#6619fe"></path><path d="M535 600L567 600L564 497Z" fill="#6839fb" stroke="#6839fb"></path><path d="M308 505L405 600L405 522Z" fill="#6619fe" stroke="#6619fe"></path><path d="M711 435L770 335L716 331Z" fill="#6730fc" stroke="#6730fc"></path><path d="M716 331L737 187L612 279Z" fill="#6619fe" stroke="#6619fe"></path><path d="M802 361L770 335L711 435Z" fill="#6a47f9" stroke="#6a47f9"></path><path d="M326 0L301 117L380 119Z" fill="#715df2" stroke="#715df2"></path><path d="M380 119L301 117L395 162Z" fill="#6730fc" stroke="#6730fc"></path><path d="M770 335L737 187L716 331Z" fill="#6c4df7" stroke="#6c4df7"></path><path d="M177 338L301 435L318 302Z" fill="#6c4df7" stroke="#6c4df7"></path><path d="M308 505L284 600L405 600Z" fill="#6d52f6" stroke="#6d52f6"></path><path d="M181 203L177 338L268 205Z" fill="#6730fc" stroke="#6730fc"></path><path d="M268 205L177 338L318 302Z" fill="#715df2" stroke="#715df2"></path><path d="M177 338L187 435L301 435Z" fill="#6626fd" stroke="#6626fd"></path><path d="M832 530L802 361L711 435Z" fill="#6f58f4" stroke="#6f58f4"></path><path d="M770 335L771 176L737 187Z" fill="#6626fd" stroke="#6626fd"></path><path d="M567 600L677 600L564 497Z" fill="#6f58f4" stroke="#6f58f4"></path><path d="M701 470L832 530L711 435Z" fill="#6619fe" stroke="#6619fe"></path><path d="M301 117L236 139L268 205Z" fill="#6730fc" stroke="#6730fc"></path><path d="M900 318L771 176L770 335Z" fill="#6c4df7" stroke="#6c4df7"></path><path d="M737 187L721 72L634 120Z" fill="#6730fc" stroke="#6730fc"></path><path d="M162 600L284 600L228 489Z" fill="#6d52f6" stroke="#6d52f6"></path><path d="M228 489L284 600L308 505Z" fill="#6626fd" stroke="#6626fd"></path><path d="M236 139L181 203L268 205Z" fill="#6940fa" stroke="#6940fa"></path><path d="M626 0L477 0L521 77Z" fill="#6d52f6" stroke="#6d52f6"></path><path d="M521 77L477 0L380 119Z" fill="#6839fb" stroke="#6839fb"></path><path d="M301 117L225 0L236 139Z" fill="#6600ff" stroke="#6600ff"></path><path d="M626 0L521 77L634 120Z" fill="#6d52f6" stroke="#6d52f6"></path><path d="M477 0L390 0L380 119Z" fill="#6730fc" stroke="#6730fc"></path><path d="M771 176L721 72L737 187Z" fill="#6600ff" stroke="#6600ff"></path><path d="M721 72L626 0L634 120Z" fill="#6d52f6" stroke="#6d52f6"></path><path d="M125 108L181 203L236 139Z" fill="#6619fe" stroke="#6619fe"></path><path d="M125 108L135 218L181 203Z" fill="#6839fb" stroke="#6839fb"></path><path d="M181 203L118 268L177 338Z" fill="#6f58f4" stroke="#6f58f4"></path><path d="M177 338L83 427L187 435Z" fill="#6940fa" stroke="#6940fa"></path><path d="M135 218L118 268L181 203Z" fill="#6626fd" stroke="#6626fd"></path><path d="M390 0L326 0L380 119Z" fill="#6d52f6" stroke="#6d52f6"></path><path d="M771 176L808 132L721 72Z" fill="#6f58f4" stroke="#6f58f4"></path><path d="M721 72L712 0L626 0Z" fill="#6f58f4" stroke="#6f58f4"></path><path d="M900 177L808 132L771 176Z" fill="#6940fa" stroke="#6940fa"></path><path d="M677 600L832 530L701 470Z" fill="#6940fa" stroke="#6940fa"></path><path d="M802 361L900 318L770 335Z" fill="#6a47f9" stroke="#6a47f9"></path><path d="M814 0L712 0L721 72Z" fill="#715df2" stroke="#715df2"></path><path d="M900 399L900 318L802 361Z" fill="#6839fb" stroke="#6839fb"></path><path d="M118 268L83 427L177 338Z" fill="#6730fc" stroke="#6730fc"></path><path d="M97 503L162 600L228 489Z" fill="#6600ff" stroke="#6600ff"></path><path d="M97 503L228 489L187 435Z" fill="#6839fb" stroke="#6839fb"></path><path d="M900 483L900 399L802 361Z" fill="#6c4df7" stroke="#6c4df7"></path><path d="M83 427L97 503L187 435Z" fill="#6d52f6" stroke="#6d52f6"></path><path d="M326 0L225 0L301 117Z" fill="#715df2" stroke="#715df2"></path><path d="M0 226L0 264L118 268Z" fill="#6a47f9" stroke="#6a47f9"></path><path d="M118 268L0 264L83 427Z" fill="#6f58f4" stroke="#6f58f4"></path><path d="M225 0L125 108L236 139Z" fill="#715df2" stroke="#715df2"></path><path d="M832 530L900 483L802 361Z" fill="#6600ff" stroke="#6600ff"></path><path d="M677 600L839 600L832 530Z" fill="#6940fa" stroke="#6940fa"></path><path d="M832 530L900 600L900 483Z" fill="#6d52f6" stroke="#6d52f6"></path><path d="M900 318L900 177L771 176Z" fill="#6940fa" stroke="#6940fa"></path><path d="M808 132L814 0L721 72Z" fill="#6626fd" stroke="#6626fd"></path><path d="M0 600L101 600L97 503Z" fill="#715df2" stroke="#715df2"></path><path d="M97 503L101 600L162 600Z" fill="#6940fa" stroke="#6940fa"></path><path d="M900 76L814 0L808 132Z" fill="#6619fe" stroke="#6619fe"></path><path d="M839 600L900 600L832 530Z" fill="#6619fe" stroke="#6619fe"></path><path d="M225 0L136 0L125 108Z" fill="#6600ff" stroke="#6600ff"></path><path d="M0 226L118 268L135 218Z" fill="#6730fc" stroke="#6730fc"></path><path d="M900 177L900 76L808 132Z" fill="#6600ff" stroke="#6600ff"></path><path d="M0 226L135 218L125 108Z" fill="#6a47f9" stroke="#6a47f9"></path><path d="M83 427L0 500L97 503Z" fill="#6c4df7" stroke="#6c4df7"></path><path d="M0 264L0 433L83 427Z" fill="#6c4df7" stroke="#6c4df7"></path><path d="M0 106L0 226L125 108Z" fill="#715df2" stroke="#715df2"></path><path d="M0 433L0 500L83 427Z" fill="#6839fb" stroke="#6839fb"></path><path d="M900 76L900 0L814 0Z" fill="#6600ff" stroke="#6600ff"></path><path d="M0 0L0 106L125 108Z" fill="#6626fd" stroke="#6626fd"></path><path d="M0 500L0 600L97 503Z" fill="#6f58f4" stroke="#6f58f4"></path><path d="M136 0L0 0L125 108Z" fill="#6d52f6" stroke="#6d52f6"></path></g></svg>