<svg id="visual" viewBox="0 0 900 600" width="900" height="600" xmlns="http://www.w3.org/2000/svg" xmlns:xlink="http://www.w3.org/1999/xlink" version="1.1"><path d="M0 79L82 133L164 121L245 67L327 43L409 43L491 115L573 121L655 115L736 55L818 49L900 43L900 0L818 0L736 0L655 0L573 0L491 0L409 0L327 0L245 0L164 0L82 0L0 0Z" fill="#715df2"></path><path d="M0 205L82 199L164 259L245 205L327 115L409 127L491 229L573 223L655 187L736 115L818 169L900 187L900 41L818 47L736 53L655 113L573 119L491 113L409 41L327 41L245 65L164 119L82 131L0 77Z" fill="#6c50f6"></path><path d="M0 253L82 241L164 349L245 241L327 211L409 229L491 277L573 319L655 235L736 217L818 211L900 235L900 185L818 167L736 113L655 185L573 221L491 227L409 125L327 113L245 203L164 257L82 197L0 203Z" fill="#6940fa"></path><path d="M0 481L82 475L164 493L245 475L327 457L409 433L491 469L573 403L655 421L736 421L818 319L900 445L900 233L818 209L736 215L655 233L573 317L491 275L409 227L327 209L245 239L164 347L82 239L0 251Z" fill="#672bfd"></path><path d="M0 601L82 601L164 601L245 601L327 601L409 601L491 601L573 601L655 601L736 601L818 601L900 601L900 443L818 317L736 419L655 419L573 401L491 467L409 431L327 455L245 473L164 491L82 473L0 479Z" fill="#6600ff"></path></svg>