<svg id="visual" viewBox="0 0 900 600" width="900" height="600" xmlns="http://www.w3.org/2000/svg" xmlns:xlink="http://www.w3.org/1999/xlink" version="1.1"><path d="M0 79L82 97L164 97L245 85L327 55L409 49L491 91L573 85L655 109L736 79L818 55L900 61L900 0L818 0L736 0L655 0L573 0L491 0L409 0L327 0L245 0L164 0L82 0L0 0Z" fill="#773b97"></path><path d="M0 157L82 175L164 187L245 175L327 91L409 103L491 193L573 187L655 145L736 169L818 157L900 145L900 59L818 53L736 77L655 107L573 83L491 89L409 47L327 53L245 83L164 95L82 95L0 77Z" fill="#662f83"></path><path d="M0 331L82 379L164 379L245 331L327 241L409 199L491 439L573 319L655 271L736 295L818 271L900 313L900 143L818 155L736 167L655 143L573 185L491 191L409 101L327 89L245 173L164 185L82 173L0 155Z" fill="#552470"></path><path d="M0 409L82 427L164 451L245 409L327 301L409 313L491 505L573 391L655 361L736 391L818 409L900 433L900 311L818 269L736 293L655 269L573 317L491 437L409 197L327 239L245 329L164 377L82 377L0 329Z" fill="#45185d"></path><path d="M0 601L82 601L164 601L245 601L327 601L409 601L491 601L573 601L655 601L736 601L818 601L900 601L900 431L818 407L736 389L655 359L573 389L491 503L409 311L327 299L245 407L164 449L82 425L0 407Z" fill="#350d4b"></path></svg>